{
  "title": "The Machine 2014 DVDRIP XVID AC3 ACAB",
  "uid": 9911324,
  "size": 1619383650,
  "categoryP": "video",
  "categoryS": "movies",
  "magnet": "?xt=urn:btih:61a13b0974742f8f2f2e0c610a352a50ebb0f9fb&amp;dn=The+Machine+2014+DVDRIP+XVID+AC3+ACAB&amp;tr=udp%3A%2F%2Ftracker.openbittorrent.com%3A80&amp;tr=udp%3A%2F%2Fopen.demonii.com%3A1337&amp;tr=udp%3A%2F%2Ftracker.coppersurfer.tk%3A6969&amp;tr=udp%3A%2F%2Fexodus.desync.com%3A6969",
  "seeders": 190,
  "leechers": 26,
  "uploader": "xxxlavalxxx",
  "files": -1,
  "time": 1396902562,
  "description": " &lt;a href=&quot;\nhttp://www.imdb.com/title/tt2317225/&quot; rel=&quot;nofollow&quot; target=&quot;_NEW&quot;&gt;\nhttp://www.imdb.com/title/tt2317225/&lt;/a&gt;\n\n\nTwo computer programmers fall in love as they create the first ever piece of self-aware artificial intelligence, which is designed to help humanity. But things go wrong when the MoD steal ...\n\nDirector: Caradog W. James\nWriter: Caradog W. James\nStars: Caity Lotz, Toby Stephens, Sam Hazeldine\nGenres: Sci-Fi | Thriller\nCountry: UK\nLanguage: English\n\n\n\nFormat                                   : AVI\nFormat/Info                              : Audio Video Interleave\nFile size                                : 1.49 GiB\nDuration                                 : 1h 26mn\nOverall bit rate                         : 2 466 Kbps\nWriting library                          : VirtualDub build 30091/release\n\nVideo\nID                                       : 0\nFormat                                   : MPEG-4 Visual\nFormat profile                           : Advanced Simple@L5\nFormat settings, BVOP                    : 2\nFormat settings, QPel                    : No\nFormat settings, GMC                     : No warppoints\nFormat settings, Matrix                  : Default (H.263)\nMuxing mode                              : Packed bitstream\nCodec ID                                 : XVID\nCodec ID/Hint                            : XviD\nDuration                                 : 1h 26mn\nBit rate                                 : 2 008 Kbps\nWidth                                    : 720 pixels\nHeight                                   : 400 pixels\nDisplay aspect ratio                     : 16:9\nFrame rate                               : 25.000 fps\nColor space                              : YUV\nChroma subsampling                       : 4:2:0\nBit depth                                : 8 bits\nScan type                                : Progressive\nCompression mode                         : Lossy\nBits/(Pixel*Frame)                       : 0.279\nStream size                              : 1.22 GiB (81%)\nWriting library                          : XviD 1.2.1 (UTC 2008-12-04)\n\nAudio\nID                                       : 1\nFormat                                   : AC-3\nFormat/Info                              : Audio Coding 3\nMode extension                           : CM (complete main)\nFormat settings, Endianness              : Big\nCodec ID                                 : 2000\nDuration                                 : 1h 26mn\nBit rate mode                            : Constant\nBit rate                                 : 448 Kbps\nChannel(s)                               : 6 channels\nChannel positions                        : Front: L C R, Side: L R, LFE\nSampling rate                            : 48.0 KHz\nBit depth                                : 16 bits\nCompression mode                         : Lossy\nStream size                              : 278 MiB (18%)\n\n\n\n\nscreens\n &lt;a href=&quot;\nhttp://i.imgur.com/fyg7peE.png&quot; rel=&quot;nofollow&quot; target=&quot;_NEW&quot;&gt;\nhttp://i.imgur.com/fyg7peE.png&lt;/a&gt; &lt;a href=&quot;\nhttp://i.imgur.com/HUWLY9s.png&quot; rel=&quot;nofollow&quot; target=&quot;_NEW&quot;&gt;\nhttp://i.imgur.com/HUWLY9s.png&lt;/a&gt; &lt;a href=&quot;\nhttp://i.imgur.com/oYOhibQ.png&quot; rel=&quot;nofollow&quot; target=&quot;_NEW&quot;&gt;\nhttp://i.imgur.com/oYOhibQ.png&lt;/a&gt;",
  "parsed": {
    "xt": "urn:btih:61a13b0974742f8f2f2e0c610a352a50ebb0f9fb",
    "dn": "The Machine 2014 DVDRIP XVID AC3 ACAB",
    "tr": [
      "udp://exodus.desync.com:6969",
      "udp://open.demonii.com:1337",
      "udp://tracker.coppersurfer.tk:6969",
      "udp://tracker.openbittorrent.com:80"
    ],
    "infoHash": "61a13b0974742f8f2f2e0c610a352a50ebb0f9fb",
    "infoHashBuffer": {
      "type": "Buffer",
      "data": [
        97,
        161,
        59,
        9,
        116,
        116,
        47,
        143,
        47,
        46,
        12,
        97,
        10,
        53,
        42,
        80,
        235,
        176,
        249,
        251
      ]
    },
    "name": "The Machine 2014 DVDRIP XVID AC3 ACAB",
    "announce": [
      "udp://exodus.desync.com:6969",
      "udp://open.demonii.com:1337",
      "udp://tracker.coppersurfer.tk:6969",
      "udp://tracker.openbittorrent.com:80"
    ],
    "urlList": []
  },
  "previous": 216,
  "peers": 16,
  "last_updated": "2016-12-25T02:46:58.148Z"
}